<?xml version="1.0" encoding="UTF-8" standalone="no"?>
<!-- Created with Inkscape (http://www.inkscape.org/) -->

<svg
   xmlns:dc="http://purl.org/dc/elements/1.1/"
   xmlns:cc="http://creativecommons.org/ns#"
   xmlns:rdf="http://www.w3.org/1999/02/22-rdf-syntax-ns#"
   xmlns:svg="http://www.w3.org/2000/svg"
   xmlns="http://www.w3.org/2000/svg"
   version="1.1"
   width="55"
   height="55"
   viewBox="0 0 55 55"
   id="svg2441"
   xml:space="preserve"><metadata
     id="metadata22"><rdf:RDF><cc:Work
         rdf:about=""><dc:format>image/svg+xml</dc:format><dc:type
           rdf:resource="http://purl.org/dc/dcmitype/StillImage" /><dc:title></dc:title></cc:Work></rdf:RDF></metadata><defs
     id="defs2453" /><g
     transform="matrix(1.0438471,-0.00307797,0.00290798,1.1048696,-1.4972545,-2.8103146)"
     id="activity-read"
     style="fill:#ffffff;display:block"><path
       d="m 27.400478,21.760432 -0.800483,3.279086 C 26.599995,25.037518 26.192,8.97 18.526,8.519 10.86,8.07 6.843,10.121 6.84,10.122 4.942,10.741 3.345,11.857 3.345,13.616 l 0,27.702 c 0,2.025 1.235,3.494 3.495,3.494 0.003,0 4.41,-1.35 10.004,-1.35 5.589,-0.001 9.995809,-12.068414 9.995809,-12.068414"
       id="path2444"
       style="fill:#ffffff;stroke:#000000;stroke-width:3.5;stroke-linejoin:round;display:inline" /><path
       d="m 27.875563,19.077064 -0.01745,6.264271 C 27.858112,25.339335 29.613,8.97 37.275,8.519 44.943,8.07 48.292396,9.6972761 48.294396,9.6982761 50.191396,10.317276 52.457,11.857 52.457,13.616 l 0,27.702 c 0,2.025 -1.233,3.494 -3.494,3.494 -0.003,0 -4.409,-1.35 -10.004,-1.35 C 33.37,43.461 26.830147,31.990183 26.830147,31.990183"
       id="path2446"
       style="fill:#ffffff;stroke:#000000;stroke-width:3.5;stroke-linejoin:round;display:inline" /><line
       display="inline"
       id="line2448"
       style="fill:#ffffff;stroke:#000000;stroke-width:0.24227618;stroke-linecap:round;stroke-linejoin:round;display:inline"
       x1="27.800886"
       x2="27.9"
       y1="45.882965"
       y2="45.716999" /></g><path
     d="m 13.946917,21.706271 a 0.007775,0 180 0 0 0.01555,0 l -4.05e-4,0 z"
     id="path2489"
     style="fill:#ffffff;fill-opacity:1;stroke:#000000;stroke-width:1.11635375;stroke-linecap:square;stroke-linejoin:bevel;stroke-opacity:1" /></svg>