<?xml version="1.0" encoding="UTF-8" standalone="no"?>
<!-- Created with Inkscape (http://www.inkscape.org/) -->

<svg
   xmlns:dc="http://purl.org/dc/elements/1.1/"
   xmlns:cc="http://creativecommons.org/ns#"
   xmlns:rdf="http://www.w3.org/1999/02/22-rdf-syntax-ns#"
   xmlns:svg="http://www.w3.org/2000/svg"
   xmlns="http://www.w3.org/2000/svg"
   xmlns:sodipodi="http://sodipodi.sourceforge.net/DTD/sodipodi-0.dtd"
   xmlns:inkscape="http://www.inkscape.org/namespaces/inkscape"
   height="55"
   id="svg2441"
   version="1.1"
   viewBox="0 0 55 55"
   width="55"
   xml:space="preserve"
   inkscape:version="0.48.2 r9819"
   sodipodi:docname="credits.svg"><metadata
     id="metadata22"><rdf:RDF><cc:Work
         rdf:about=""><dc:format>image/svg+xml</dc:format><dc:type
           rdf:resource="http://purl.org/dc/dcmitype/StillImage" /></cc:Work></rdf:RDF></metadata><sodipodi:namedview
     pagecolor="#ffffff"
     bordercolor="#666666"
     borderopacity="1"
     objecttolerance="10"
     gridtolerance="10"
     guidetolerance="10"
     inkscape:pageopacity="0"
     inkscape:pageshadow="2"
     inkscape:window-width="1259"
     inkscape:window-height="577"
     id="namedview20"
     showgrid="false"
     inkscape:zoom="4.2909091"
     inkscape:cx="1.5051873"
     inkscape:cy="27.5"
     inkscape:window-x="149"
     inkscape:window-y="0"
     inkscape:window-maximized="0"
     inkscape:current-layer="svg2441"
     showguides="true"
     inkscape:guide-bbox="true" /><defs
     id="defs2453" /><g
     id="activity-read"
     style="display:block;fill:#ffffff"
     transform="matrix(1.0438471,-0.00307797,0.00290798,1.1048696,-1.4972545,-6.5391282)"><path
       d="m 27.904,11.023 -0.002,0 c 0,-0.002 -1.71,-2.053 -9.376,-2.504 C 10.86,8.07 6.843,10.121 6.84,10.122 4.942,10.741 3.345,11.857 3.345,13.616 l 0,27.702 c 0,2.025 1.235,3.494 3.495,3.494 0.003,0 4.41,-1.35 10.004,-1.35 5.589,-0.001 11.061,2.253 11.061,2.253"
       id="path2444"
       style="fill:#ffffff;stroke:#000000;stroke-width:3.50000000000000000;stroke-linejoin:round;display:inline"
       inkscape:connector-curvature="0" /><path
       d="m 27.898,11.023 0,0 c 0,-0.002 1.715,-2.053 9.377,-2.504 7.668,-0.449 11.686,1.602 11.688,1.603 1.897,0.619 3.494,1.735 3.494,3.494 l 0,27.702 c 0,2.025 -1.233,3.494 -3.494,3.494 -0.003,0 -4.409,-1.35 -10.004,-1.35 -5.589,-0.001 -11.062,2.253 -11.062,2.253"
       id="path2446"
       style="fill:#ffffff;stroke:#000000;stroke-width:3.50000000000000000;stroke-linejoin:round;display:inline"
       inkscape:connector-curvature="0" /><line
       display="inline"
       id="line2448"
       style="fill:#ffffff;stroke:#000000;stroke-width:0.24227618000000001;stroke-linecap:round;stroke-linejoin:round;display:inline"
       x1="27.800886"
       x2="27.9"
       y1="45.882965"
       y2="45.716999" /><path
       d="m 32.566,44.275 c 0,0 -0.031,2.906 -4.666,2.906 -4.632,0 -4.663,-2.906 -4.663,-2.906"
       id="path2450"
       style="fill:#ffffff;stroke:#000000;stroke-width:3.50000000000000000;stroke-linecap:round;stroke-linejoin:round;display:inline"
       inkscape:connector-curvature="0" /></g><path
     d="m 13.946917,21.706271 a 0.007775,0 180 0 0 0.01555,0 l -4.05e-4,0 z"
     id="path2489"
     style="fill:#ffffff;fill-opacity:1;stroke:#000000;stroke-width:1.11635375;stroke-linecap:square;stroke-linejoin:bevel;stroke-opacity:1"
     inkscape:connector-curvature="0" /><path
     sodipodi:type="star"
     style="fill:#ffffff;fill-rule:evenodd;stroke:#000000;stroke-width:1px;stroke-linecap:butt;stroke-linejoin:miter;stroke-opacity:1"
     id="path2992"
     sodipodi:sides="5"
     sodipodi:cx="21.673729"
     sodipodi:cy="5.5932202"
     sodipodi:r1="18.137587"
     sodipodi:r2="9.0687923"
     sodipodi:arg1="0.48088728"
     sodipodi:arg2="1.1092058"
     inkscape:flatsided="false"
     inkscape:rounded="0"
     inkscape:randomized="0"
     d="M 37.754238,13.983051 25.712722,13.71292 18.663676,23.479294 15.199553,11.943656 3.7329046,8.2575907 13.633475,1.3983053 13.595742,-10.646182 23.178755,-3.3498157 34.622083,-7.1076527 30.64414,4.2610351 z"
     inkscape:transform-center-x="-1.0885745"
     inkscape:transform-center-y="-0.64342817"
     transform="matrix(-0.31330237,0.84484885,-0.78750376,-0.29203662,38.952668,7.2253948)" /></svg>