<?xml version="1.0" encoding="UTF-8" standalone="no"?>
<!-- Created with Inkscape (http://www.inkscape.org/) -->

<svg
   xmlns:dc="http://purl.org/dc/elements/1.1/"
   xmlns:cc="http://creativecommons.org/ns#"
   xmlns:rdf="http://www.w3.org/1999/02/22-rdf-syntax-ns#"
   xmlns:svg="http://www.w3.org/2000/svg"
   xmlns="http://www.w3.org/2000/svg"
   xmlns:sodipodi="http://sodipodi.sourceforge.net/DTD/sodipodi-0.dtd"
   xmlns:inkscape="http://www.inkscape.org/namespaces/inkscape"
   height="55"
   id="svg2441"
   version="1.1"
   viewBox="0 0 55 55"
   width="55"
   xml:space="preserve"
   inkscape:version="0.48.3.1 r9886"
   sodipodi:docname="edit-c.svg"><metadata
   id="metadata22"><rdf:RDF><cc:Work
       rdf:about=""><dc:format>image/svg+xml</dc:format><dc:type
         rdf:resource="http://purl.org/dc/dcmitype/StillImage" /><dc:title /></cc:Work></rdf:RDF></metadata><sodipodi:namedview
   pagecolor="#ffffff"
   bordercolor="#666666"
   borderopacity="1"
   objecttolerance="10"
   gridtolerance="10"
   guidetolerance="10"
   inkscape:pageopacity="0"
   inkscape:pageshadow="2"
   inkscape:window-width="1024"
   inkscape:window-height="541"
   id="namedview20"
   showgrid="false"
   inkscape:zoom="4.2909091"
   inkscape:cx="56.291048"
   inkscape:cy="27.774791"
   inkscape:window-x="0"
   inkscape:window-y="27"
   inkscape:window-maximized="1"
   inkscape:current-layer="svg2441"
   showguides="true"
   inkscape:guide-bbox="true" /><defs
   id="defs2453" /><g
   id="activity-read"
   style="display:block;fill:#ffffff"
   transform="matrix(1.0438471,-0.00307797,0.00290798,1.1048696,-1.4972545,-6.5391282)"><path
     d="m 27.904,11.023 -0.002,0 c 0,-0.002 -1.71,-2.053 -9.376,-2.504 C 10.86,8.07 6.843,10.121 6.84,10.122 4.942,10.741 3.345,11.857 3.345,13.616 l 0,27.702 c 0,2.025 1.235,3.494 3.495,3.494 0.003,0 4.41,-1.35 10.004,-1.35 5.589,-0.001 11.061,2.253 11.061,2.253"
     id="path2444"
     style="fill:#ffffff;stroke:#000000;stroke-width:3.50000000000000000;stroke-linejoin:round;display:inline"
     inkscape:connector-curvature="0" /><path
     d="m 27.898,11.023 0,0 c 0,-0.002 1.715,-2.053 9.377,-2.504 7.668,-0.449 11.686,1.602 11.688,1.603 1.897,0.619 3.494,1.735 3.494,3.494 l 0,27.702 c 0,2.025 -1.233,3.494 -3.494,3.494 -0.003,0 -4.409,-1.35 -10.004,-1.35 -5.589,-0.001 -11.062,2.253 -11.062,2.253"
     id="path2446"
     style="fill:#ffffff;stroke:#000000;stroke-width:3.50000000000000000;stroke-linejoin:round;display:inline"
     inkscape:connector-curvature="0" /><line
     display="inline"
     id="line2448"
     style="fill:#ffffff;stroke:#000000;stroke-width:0.24227618000000001;stroke-linecap:round;stroke-linejoin:round;display:inline"
     x1="27.800886"
     x2="27.9"
     y1="45.882965"
     y2="45.716999" /><path
     d="m 32.566,44.275 c 0,0 -0.031,2.906 -4.666,2.906 -4.632,0 -4.663,-2.906 -4.663,-2.906"
     id="path2450"
     style="fill:#ffffff;stroke:#000000;stroke-width:3.50000000000000000;stroke-linecap:round;stroke-linejoin:round;display:inline"
     inkscape:connector-curvature="0" /></g><path
   d="m 13.946917,21.706271 a 0.007775,0 180 0 0 0.01555,0 l -4.05e-4,0 z"
   id="path2489"
   style="fill:#ffffff;fill-opacity:1;stroke:#000000;stroke-width:1.11635375;stroke-linecap:square;stroke-linejoin:bevel;stroke-opacity:1"
   inkscape:connector-curvature="0" />
<rect
   style="fill:#000000;fill-rule:evenodd;stroke:#000000;stroke-width:1px;stroke-linecap:butt;stroke-linejoin:miter;stroke-opacity:1"
   id="rect2990"
   width="38.919491"
   height="2.5635593"
   x="7.2245765"
   y="12.817797" /><rect
   style="fill:#000000;fill-rule:evenodd;stroke:#000000;stroke-width:1px;stroke-linecap:butt;stroke-linejoin:miter;stroke-opacity:1"
   id="rect2990-9"
   width="38.919491"
   height="2.5635593"
   x="7.1080513"
   y="20.158899" /><rect
   style="fill:#000000;fill-rule:evenodd;stroke:#000000;stroke-width:1px;stroke-linecap:butt;stroke-linejoin:miter;stroke-opacity:1"
   id="rect2990-9-1"
   width="38.919491"
   height="2.5635593"
   x="6.4088988"
   y="26.684322" /><g
   id="g3108"
   transform="translate(59.454016,-11.507561)"><g
     transform="matrix(1.0438471,-0.00307797,0.00290798,1.1048696,-1.4972545,-6.5391282)"
     style="fill:#ffffff;display:block"
     id="activity-read-9"><line
       y2="45.716999"
       y1="45.882965"
       x2="27.9"
       x1="27.800886"
       style="fill:#ffffff;stroke:#000000;stroke-width:0.24227618;stroke-linecap:round;stroke-linejoin:round;display:inline"
       id="line2448-5"
       display="inline" /></g><path
     inkscape:connector-curvature="0"
     style="fill:#ffffff;fill-opacity:1;stroke:#000000;stroke-width:1.11635375;stroke-linecap:square;stroke-linejoin:bevel;stroke-opacity:1"
     id="path2489-6"
     d="m 13.946917,21.706271 a 0.007775,0 180 0 0 0.01555,0 l -4.05e-4,0 z" /><g
     transform="matrix(0.674165,0,0,0.66037088,7.8209795,4.6452138)"
     display="block"
     id="preferences-system"
     style="fill:#ffffff;stroke:#000000;stroke-width:2.3485074;stroke-miterlimit:4;stroke-dasharray:none;display:block">
	<path
   inkscape:connector-curvature="0"
   d="m -35.442942,67.840467 c -2.538054,2.256734 -6.654404,2.256734 -9.191375,0 L -69.337826,45.876072 c -2.538054,-2.256734 -2.538054,-5.916825 0,-8.172597 l 0,0 c 2.538054,-2.256733 6.654403,-2.256733 9.191374,0 l 24.702427,21.964395 c 2.538054,2.255772 2.538054,5.915863 0.0011,8.172597 l 0,0 z"
   style="fill:#ffffff;stroke:#000000;stroke-width:2.39889026;stroke-miterlimit:4;stroke-dasharray:none"
   id="path9173" />
	<g
   style="fill:#ffffff;stroke:#000000;stroke-width:2.3485074;stroke-miterlimit:4;stroke-dasharray:none"
   id="g9175">
		<g
   style="fill:#ffffff;stroke:#000000;stroke-width:2.3485074;stroke-miterlimit:4;stroke-dasharray:none"
   id="g9177">
			<path
   inkscape:connector-curvature="0"
   d="m -71.504326,20.990347 c -0.870933,0 -1.719117,0.07802 -2.554303,0.192636 l 11.435867,10.169273 -13.85693,12.32102 -11.436951,-10.169273 c -0.128906,0.742613 -0.21665,1.497748 -0.21665,2.273109 0,8.166817 7.445176,14.786765 16.628967,14.786765 9.183791,0 16.628967,-6.619948 16.628967,-14.786765 0,-8.166816 -7.445176,-14.786765 -16.628967,-14.786765 z"
   style="fill:#ffffff;stroke:#000000;stroke-width:2.39889026;stroke-miterlimit:4;stroke-dasharray:none"
   id="path9179" />
		</g>
	</g>
</g></g></svg>