<?xml version="1.0" encoding="UTF-8" standalone="no"?>
<!-- Created with Inkscape (http://www.inkscape.org/) -->

<svg
   xmlns:dc="http://purl.org/dc/elements/1.1/"
   xmlns:cc="http://creativecommons.org/ns#"
   xmlns:rdf="http://www.w3.org/1999/02/22-rdf-syntax-ns#"
   xmlns:svg="http://www.w3.org/2000/svg"
   xmlns="http://www.w3.org/2000/svg"
   xmlns:sodipodi="http://sodipodi.sourceforge.net/DTD/sodipodi-0.dtd"
   xmlns:inkscape="http://www.inkscape.org/namespaces/inkscape"
   height="55"
   id="svg2441"
   version="1.1"
   viewBox="0 0 55 55"
   width="55"
   xml:space="preserve"
   inkscape:version="0.48.3.1 r9886"
   sodipodi:docname="edit.svg"><metadata
     id="metadata22"><rdf:RDF><cc:Work
         rdf:about=""><dc:format>image/svg+xml</dc:format><dc:type
           rdf:resource="http://purl.org/dc/dcmitype/StillImage" /></cc:Work></rdf:RDF></metadata><sodipodi:namedview
     pagecolor="#ffffff"
     bordercolor="#666666"
     borderopacity="1"
     objecttolerance="10"
     gridtolerance="10"
     guidetolerance="10"
     inkscape:pageopacity="0"
     inkscape:pageshadow="2"
     inkscape:window-width="1024"
     inkscape:window-height="550"
     id="namedview20"
     showgrid="false"
     inkscape:zoom="4.2909091"
     inkscape:cx="1.5051873"
     inkscape:cy="27.5"
     inkscape:window-x="0"
     inkscape:window-y="0"
     inkscape:window-maximized="1"
     inkscape:current-layer="svg2441"
     showguides="true"
     inkscape:guide-bbox="true" /><defs
     id="defs2453" /><g
     id="activity-read"
     style="display:block;fill:#ffffff"
     transform="matrix(1.0438471,-0.00307797,0.00290798,1.1048696,-1.4972545,-6.5391282)"><path
       d="m 27.904,11.023 -0.002,0 c 0,-0.002 -1.71,-2.053 -9.376,-2.504 C 10.86,8.07 6.843,10.121 6.84,10.122 4.942,10.741 3.345,11.857 3.345,13.616 l 0,27.702 c 0,2.025 1.235,3.494 3.495,3.494 0.003,0 4.41,-1.35 10.004,-1.35 5.589,-0.001 11.061,2.253 11.061,2.253"
       id="path2444"
       style="fill:#ffffff;stroke:#000000;stroke-width:3.50000000000000000;stroke-linejoin:round;display:inline"
       inkscape:connector-curvature="0" /><path
       d="m 27.898,11.023 0,0 c 0,-0.002 1.715,-2.053 9.377,-2.504 7.668,-0.449 11.686,1.602 11.688,1.603 1.897,0.619 3.494,1.735 3.494,3.494 l 0,27.702 c 0,2.025 -1.233,3.494 -3.494,3.494 -0.003,0 -4.409,-1.35 -10.004,-1.35 -5.589,-0.001 -11.062,2.253 -11.062,2.253"
       id="path2446"
       style="fill:#ffffff;stroke:#000000;stroke-width:3.50000000000000000;stroke-linejoin:round;display:inline"
       inkscape:connector-curvature="0" /><line
       display="inline"
       id="line2448"
       style="fill:#ffffff;stroke:#000000;stroke-width:0.24227618000000001;stroke-linecap:round;stroke-linejoin:round;display:inline"
       x1="27.800886"
       x2="27.9"
       y1="45.882965"
       y2="45.716999" /><path
       d="m 32.566,44.275 c 0,0 -0.031,2.906 -4.666,2.906 -4.632,0 -4.663,-2.906 -4.663,-2.906"
       id="path2450"
       style="fill:#ffffff;stroke:#000000;stroke-width:3.50000000000000000;stroke-linecap:round;stroke-linejoin:round;display:inline"
       inkscape:connector-curvature="0" /></g><path
     d="m 13.946917,21.706271 a 0.007775,0 180 0 0 0.01555,0 l -4.05e-4,0 z"
     id="path2489"
     style="fill:#ffffff;fill-opacity:1;stroke:#000000;stroke-width:1.11635375;stroke-linecap:square;stroke-linejoin:bevel;stroke-opacity:1"
     inkscape:connector-curvature="0" /><g
     style="fill:#ffffff;stroke:#000000;stroke-width:2.3485074;stroke-miterlimit:4;stroke-dasharray:none;display:block"
     id="preferences-system"
     display="block"
     transform="matrix(0.674165,0,0,0.66037088,7.8209795,4.6452138)">
	<path
   id="path9173"
   style="fill:#ffffff;stroke:#000000;stroke-width:2.3485074;stroke-miterlimit:4;stroke-dasharray:none"
   d="m 51.103,50.895 c -2.343,2.343 -6.143,2.343 -8.485,0 L 19.813,28.091 c -2.343,-2.343 -2.343,-6.143 0,-8.485 l 0,0 c 2.343,-2.343 6.143,-2.343 8.485,0 L 51.102,42.41 c 2.343,2.342 2.343,6.142 0.001,8.485 l 0,0 z"
   inkscape:connector-curvature="0" />
	<g
   id="g9175"
   style="fill:#ffffff;stroke:#000000;stroke-width:2.3485074;stroke-miterlimit:4;stroke-dasharray:none">
		<g
   id="g9177"
   style="fill:#ffffff;stroke:#000000;stroke-width:2.3485074;stroke-miterlimit:4;stroke-dasharray:none">
			<path
   id="path9179"
   style="fill:#ffffff;stroke:#000000;stroke-width:2.3485074;stroke-miterlimit:4;stroke-dasharray:none"
   d="m 17.813,2.254 c -0.804,0 -1.587,0.081 -2.358,0.2 L 26.012,13.012 13.22,25.804 2.662,15.246 c -0.119,0.771 -0.2,1.555 -0.2,2.36 0,8.479 6.873,15.352 15.351,15.352 8.478,0 15.351,-6.873 15.351,-15.352 0,-8.479 -6.873,-15.352 -15.351,-15.352 z"
   inkscape:connector-curvature="0" />
		</g>
	</g>
</g></svg>