<?xml version="1.0" encoding="UTF-8" standalone="no"?>
<!-- Created with Inkscape (http://www.inkscape.org/) -->

<svg
   xmlns:dc="http://purl.org/dc/elements/1.1/"
   xmlns:cc="http://creativecommons.org/ns#"
   xmlns:rdf="http://www.w3.org/1999/02/22-rdf-syntax-ns#"
   xmlns:svg="http://www.w3.org/2000/svg"
   xmlns="http://www.w3.org/2000/svg"
   xmlns:sodipodi="http://sodipodi.sourceforge.net/DTD/sodipodi-0.dtd"
   xmlns:inkscape="http://www.inkscape.org/namespaces/inkscape"
   height="55"
   id="svg2441"
   version="1.1"
   viewBox="0 0 55 55"
   width="55"
   xml:space="preserve"
   inkscape:version="0.48.3.1 r9886"
   sodipodi:docname="edit-c.svg"><metadata
     id="metadata22"><rdf:RDF><cc:Work
         rdf:about=""><dc:format>image/svg+xml</dc:format><dc:type
           rdf:resource="http://purl.org/dc/dcmitype/StillImage" /><dc:title></dc:title></cc:Work></rdf:RDF></metadata><sodipodi:namedview
     pagecolor="#ffffff"
     bordercolor="#666666"
     borderopacity="1"
     objecttolerance="10"
     gridtolerance="10"
     guidetolerance="10"
     inkscape:pageopacity="0"
     inkscape:pageshadow="2"
     inkscape:window-width="1024"
     inkscape:window-height="541"
     id="namedview20"
     showgrid="false"
     inkscape:zoom="4.2909091"
     inkscape:cx="56.291048"
     inkscape:cy="27.5"
     inkscape:window-x="0"
     inkscape:window-y="27"
     inkscape:window-maximized="1"
     inkscape:current-layer="svg2441"
     showguides="true"
     inkscape:guide-bbox="true" /><defs
     id="defs2453" /><g
     id="activity-read"
     style="display:block;fill:#ffffff"
     transform="matrix(1.0438471,-0.00307797,0.00290798,1.1048696,-1.4972545,-6.5391282)"><path
       d="m 27.904,11.023 -0.002,0 c 0,-0.002 -1.71,-2.053 -9.376,-2.504 C 10.86,8.07 6.843,10.121 6.84,10.122 4.942,10.741 3.345,11.857 3.345,13.616 l 0,27.702 c 0,2.025 1.235,3.494 3.495,3.494 0.003,0 4.41,-1.35 10.004,-1.35 5.589,-0.001 11.061,2.253 11.061,2.253"
       id="path2444"
       style="fill:#ffffff;stroke:#000000;stroke-width:3.50000000000000000;stroke-linejoin:round;display:inline"
       inkscape:connector-curvature="0" /><path
       d="m 27.898,11.023 0,0 c 0,-0.002 1.715,-2.053 9.377,-2.504 7.668,-0.449 11.686,1.602 11.688,1.603 1.897,0.619 3.494,1.735 3.494,3.494 l 0,27.702 c 0,2.025 -1.233,3.494 -3.494,3.494 -0.003,0 -4.409,-1.35 -10.004,-1.35 -5.589,-0.001 -11.062,2.253 -11.062,2.253"
       id="path2446"
       style="fill:#ffffff;stroke:#000000;stroke-width:3.50000000000000000;stroke-linejoin:round;display:inline"
       inkscape:connector-curvature="0" /><line
       display="inline"
       id="line2448"
       style="fill:#ffffff;stroke:#000000;stroke-width:0.24227618000000001;stroke-linecap:round;stroke-linejoin:round;display:inline"
       x1="27.800886"
       x2="27.9"
       y1="45.882965"
       y2="45.716999" /><path
       d="m 32.566,44.275 c 0,0 -0.02689,1.429497 -4.885146,1.428875 C 23.048853,45.703282 23.237,44.275 23.237,44.275"
       id="path2450"
       style="fill:#ffffff;stroke:#000000;stroke-width:3.5;stroke-linecap:round;stroke-linejoin:round;display:inline"
       inkscape:connector-curvature="0"
       sodipodi:nodetypes="csc" /></g><path
     d="m 13.946917,21.706271 a 0.007775,0 180 0 0 0.01555,0 l -4.05e-4,0 z"
     id="path2489"
     style="fill:#ffffff;fill-opacity:1;stroke:#000000;stroke-width:1.11635375;stroke-linecap:square;stroke-linejoin:bevel;stroke-opacity:1"
     inkscape:connector-curvature="0" /><text
     xml:space="preserve"
     style="font-size:10.41984367000000056px;font-style:normal;font-weight:normal;line-height:125%;letter-spacing:0px;word-spacing:0px;fill:#000000;fill-opacity:1;stroke:none;font-family:Sans"
     x="9.6616058"
     y="17.897673"
     id="text3637"
     sodipodi:linespacing="125%"><tspan
       sodipodi:role="line"
       id="tspan3639"
       x="9.6616058"
       y="17.897673">Hello</tspan><tspan
       sodipodi:role="line"
       x="9.6616058"
       y="30.922478"
       id="tspan3641">World!</tspan></text>
</svg>