<?xml version="1.0" encoding="UTF-8" standalone="no"?>
<!-- Created with Inkscape (http://www.inkscape.org/) -->

<svg
   xmlns:dc="http://purl.org/dc/elements/1.1/"
   xmlns:cc="http://creativecommons.org/ns#"
   xmlns:rdf="http://www.w3.org/1999/02/22-rdf-syntax-ns#"
   xmlns:svg="http://www.w3.org/2000/svg"
   xmlns="http://www.w3.org/2000/svg"
   xmlns:sodipodi="http://sodipodi.sourceforge.net/DTD/sodipodi-0.dtd"
   xmlns:inkscape="http://www.inkscape.org/namespaces/inkscape"
   height="55"
   id="svg2441"
   version="1.1"
   viewBox="0 0 55 55"
   width="55"
   xml:space="preserve"
   inkscape:version="0.48.3.1 r9886"
   sodipodi:docname="edit-c.svg"><metadata
   id="metadata22"><rdf:RDF><cc:Work
       rdf:about=""><dc:format>image/svg+xml</dc:format><dc:type
         rdf:resource="http://purl.org/dc/dcmitype/StillImage" /><dc:title></dc:title></cc:Work></rdf:RDF></metadata><sodipodi:namedview
   pagecolor="#ffffff"
   bordercolor="#666666"
   borderopacity="1"
   objecttolerance="10"
   gridtolerance="10"
   guidetolerance="10"
   inkscape:pageopacity="0"
   inkscape:pageshadow="2"
   inkscape:window-width="1024"
   inkscape:window-height="541"
   id="namedview20"
   showgrid="false"
   inkscape:zoom="4.2909091"
   inkscape:cx="56.291048"
   inkscape:cy="27.774791"
   inkscape:window-x="0"
   inkscape:window-y="27"
   inkscape:window-maximized="1"
   inkscape:current-layer="svg2441"
   showguides="true"
   inkscape:guide-bbox="true" /><defs
   id="defs2453" /><g
   id="activity-read"
   style="display:block;fill:#ffffff"
   transform="matrix(1.0438471,-0.00307797,0.00290798,1.1048696,-1.4972545,-6.5391282)"><path
     d="m 27.904,11.023 -0.002,0 c 0,-0.002 -1.71,-2.053 -9.376,-2.504 C 10.86,8.07 6.843,10.121 6.84,10.122 4.942,10.741 3.345,11.857 3.345,13.616 l 0,27.702 c 0,2.025 1.235,3.494 3.495,3.494 0.003,0 4.41,-1.35 10.004,-1.35 5.589,-0.001 11.061,2.253 11.061,2.253"
     id="path2444"
     style="fill:#ffffff;stroke:#000000;stroke-width:3.50000000000000000;stroke-linejoin:round;display:inline"
     inkscape:connector-curvature="0" /><path
     d="m 27.898,11.023 0,0 c 0,-0.002 1.715,-2.053 9.377,-2.504 7.668,-0.449 11.686,1.602 11.688,1.603 1.897,0.619 3.494,1.735 3.494,3.494 l 0,27.702 c 0,2.025 -1.233,3.494 -3.494,3.494 -0.003,0 -4.409,-1.35 -10.004,-1.35 -5.589,-0.001 -11.062,2.253 -11.062,2.253"
     id="path2446"
     style="fill:#ffffff;stroke:#000000;stroke-width:3.50000000000000000;stroke-linejoin:round;display:inline"
     inkscape:connector-curvature="0" /><line
     display="inline"
     id="line2448"
     style="fill:#ffffff;stroke:#000000;stroke-width:0.24227618000000001;stroke-linecap:round;stroke-linejoin:round;display:inline"
     x1="27.800886"
     x2="27.9"
     y1="45.882965"
     y2="45.716999" /><path
     d="m 32.566,44.275 c 0,0 -0.031,2.906 -4.666,2.906 -4.632,0 -4.663,-2.906 -4.663,-2.906"
     id="path2450"
     style="fill:#ffffff;stroke:#000000;stroke-width:3.50000000000000000;stroke-linecap:round;stroke-linejoin:round;display:inline"
     inkscape:connector-curvature="0" /></g><path
   d="m 13.946917,21.706271 a 0.007775,0 180 0 0 0.01555,0 l -4.05e-4,0 z"
   id="path2489"
   style="fill:#ffffff;fill-opacity:1;stroke:#000000;stroke-width:1.11635375;stroke-linecap:square;stroke-linejoin:bevel;stroke-opacity:1"
   inkscape:connector-curvature="0" />
<g
   id="go-home"
   transform="matrix(0.74148531,0,0,0.74148531,7.3751619,0.554007)"
   style="fill:#ffffff;stroke:#000000"><path
     id="path3224"
     d="M 27.5,15.96256 8.48131,32.4005 8.55256,48.0374 17,48.0052 l 0,-17.0809 9,0 0,17.0809 21.59,0 -0.1679,-15.726 z m 4,14.96174 8,0 0,8 -8,0 z"
     inkscape:connector-curvature="0"
     style="fill:#ffffff;stroke:#000000" /><path
     id="path3226"
     d="M 5.48131,31.362365 27.5,12.924424 l 11.3997,9.114941 -0.036,-8.816281 4.0299,0.01041 -0.0104,12.052971 7.5389,5.9546"
     inkscape:connector-curvature="0"
     style="fill:none;stroke:#000000;stroke-width:4.5;stroke-linecap:round" /></g></svg>