<?xml version="1.0" encoding="UTF-8" standalone="no"?>
<!-- Created with Inkscape (http://www.inkscape.org/) -->

<svg
   xmlns:dc="http://purl.org/dc/elements/1.1/"
   xmlns:cc="http://creativecommons.org/ns#"
   xmlns:rdf="http://www.w3.org/1999/02/22-rdf-syntax-ns#"
   xmlns:svg="http://www.w3.org/2000/svg"
   xmlns="http://www.w3.org/2000/svg"
   version="1.1"
   width="55"
   height="55"
   id="svg2">
  <defs
     id="defs4" />
  <metadata
     id="metadata7">
    <rdf:RDF>
      <cc:Work
         rdf:about="">
        <dc:format>image/svg+xml</dc:format>
        <dc:type
           rdf:resource="http://purl.org/dc/dcmitype/StillImage" />
        <dc:title></dc:title>
      </cc:Work>
    </rdf:RDF>
  </metadata>
  <g
     transform="translate(0,-997.36218)"
     id="layer1">
    <g
       transform="translate(-0.15462128,1000.9789)"
       id="g3053">
      <g
         transform="matrix(1.0438471,-0.00307797,0.00290798,1.1048696,-1.4972545,-6.5391282)"
         id="activity-read"
         style="fill:#ffffff;display:block">
        <path
           d="m 27.904,11.023 -0.002,0 c 0,-0.002 -1.71,-2.053 -9.376,-2.504 C 10.86,8.07 6.843,10.121 6.84,10.122 4.942,10.741 3.345,11.857 3.345,13.616 l 0,27.702 c 0,2.025 1.235,3.494 3.495,3.494 0.003,0 4.41,-1.35 10.004,-1.35 5.589,-0.001 11.061,2.253 11.061,2.253"
           id="path2444"
           style="fill:#ffffff;stroke:#000000;stroke-width:3.5;stroke-linejoin:round;display:inline" />
        <path
           d="m 27.898,11.023 0,0 c 0,-0.002 1.715,-2.053 9.377,-2.504 7.668,-0.449 11.686,1.602 11.688,1.603 1.897,0.619 3.494,1.735 3.494,3.494 l 0,27.702 c 0,2.025 -1.233,3.494 -3.494,3.494 -0.003,0 -4.409,-1.35 -10.004,-1.35 -5.589,-0.001 -11.062,2.253 -11.062,2.253"
           id="path2446"
           style="fill:#ffffff;stroke:#000000;stroke-width:3.5;stroke-linejoin:round;display:inline" />
        <line
           y2="45.716999"
           y1="45.882965"
           x2="27.9"
           x1="27.800886"
           style="fill:#ffffff;stroke:#000000;stroke-width:0.24227618;stroke-linecap:round;stroke-linejoin:round;display:inline"
           id="line2448"
           display="inline" />
        <path
           d="m 32.566,44.275 c 0,0 -0.031,2.906 -4.666,2.906 -4.632,0 -4.663,-2.906 -4.663,-2.906"
           id="path2450"
           style="fill:#ffffff;stroke:#000000;stroke-width:3.5;stroke-linecap:round;stroke-linejoin:round;display:inline" />
      </g>
      <path
         d="m 13.946917,21.706271 a 0.007775,0 180 0 0 0.01555,0 l -4.05e-4,0 z"
         id="path2489"
         style="fill:#ffffff;fill-opacity:1;stroke:#000000;stroke-width:1.11635375;stroke-linecap:square;stroke-linejoin:bevel;stroke-opacity:1" />
      <g
         transform="matrix(0.674165,0,0,0.66037088,7.8209795,4.6452138)"
         id="preferences-system"
         style="fill:#ffffff;stroke:#000000;stroke-width:2.3485074;stroke-miterlimit:4;stroke-dasharray:none;display:block">
	
	<g
   id="g9175"
   style="fill:#ffffff;stroke:#000000;stroke-width:2.3485074;stroke-miterlimit:4;stroke-dasharray:none">
		<g
   id="g9177"
   style="fill:#ffffff;stroke:#000000;stroke-width:2.3485074;stroke-miterlimit:4;stroke-dasharray:none">
			
		</g>

	</g>

</g>
    </g>
    <rect
       width="6.6354995"
       height="2.8641834"
       x="24"
       y="1042.498"
       id="rect3066"
       style="fill:#000000;fill-rule:evenodd;stroke:#000000;stroke-width:0.44150427px;stroke-linecap:butt;stroke-linejoin:miter;stroke-opacity:1" />
    <g
       transform="translate(137.75943,986.89113)"
       id="g3126">
      <path
         d="m 14.516366,23.366123 a 0.00775,0 180 0 0 0.0155,0 l -4.03e-4,0 z"
         id="path2489-4"
         style="fill:#ffffff;fill-opacity:1;stroke:#000000;stroke-width:1.12501132;stroke-linecap:square;stroke-linejoin:bevel;stroke-opacity:1" />
      <path
         d="m -97.74442,37.903664 c -1.23708,0 -2.25236,1.033402 -2.25236,2.292537 l 0,5.257541 -3.66384,-3.729187 c -0.87567,-0.889397 -2.27949,-0.891288 -3.15329,0 -0.87381,0.891291 -0.87564,2.35072 0,3.240113 l 3.69386,3.729188 -5.22548,0 c -1.23707,0 -2.25236,1.033401 -2.25236,2.292537 0,1.259135 1.01529,2.261965 2.25236,2.261965 l 5.19545,0 -3.66383,3.729188 c -0.87381,0.891293 -0.87564,2.35072 0,3.240115 0.87566,0.889391 2.30952,0.860724 3.18333,-0.03061 l 3.6338,-3.729185 0,5.318675 c 0,1.259138 1.01528,2.261968 2.25236,2.261968 1.23707,0 2.22233,-1.00283 2.22233,-2.261968 l 0,-5.349241 3.7239,3.759751 c 0.87567,0.889394 2.2795,0.891293 3.1533,0 0.87381,-0.89129 0.87568,-2.320152 0,-3.209542 l -3.69386,-3.729191 5.19543,0 c 1.23708,0 2.22235,-1.002832 2.22235,-2.261964 0,-1.259138 -0.98527,-2.292538 -2.22235,-2.292538 l -5.22547,0 3.69388,-3.790322 c 0.87381,-0.891292 0.87567,-2.289586 0,-3.17898 -0.87568,-0.889392 -2.27951,-0.921863 -3.15331,-0.0306 l -3.69387,3.790319 0,-5.288104 c 0,-1.259138 -0.98526,-2.292538 -2.22233,-2.292538 z"
         id="rect3894"
         style="fill:#ffffff;fill-opacity:1;stroke:#282828;stroke-width:1.93908417;stroke-linecap:round;stroke-linejoin:round;stroke-miterlimit:4;stroke-opacity:1;stroke-dasharray:none" />
    </g>
  </g>
</svg>
