<?xml version="1.0" encoding="UTF-8" standalone="no"?>
<!-- Created with Inkscape (http://www.inkscape.org/) -->

<svg
   xmlns:dc="http://purl.org/dc/elements/1.1/"
   xmlns:cc="http://creativecommons.org/ns#"
   xmlns:rdf="http://www.w3.org/1999/02/22-rdf-syntax-ns#"
   xmlns:svg="http://www.w3.org/2000/svg"
   xmlns="http://www.w3.org/2000/svg"
   xmlns:sodipodi="http://sodipodi.sourceforge.net/DTD/sodipodi-0.dtd"
   xmlns:inkscape="http://www.inkscape.org/namespaces/inkscape"
   height="55"
   id="svg2441"
   version="1.1"
   viewBox="0 0 55 55"
   width="55"
   xml:space="preserve"
   inkscape:version="0.48.3.1 r9886"
   sodipodi:docname="read.svg"><metadata
     id="metadata22"><rdf:RDF><cc:Work
         rdf:about=""><dc:format>image/svg+xml</dc:format><dc:type
           rdf:resource="http://purl.org/dc/dcmitype/StillImage" /></cc:Work></rdf:RDF></metadata><sodipodi:namedview
     pagecolor="#ffffff"
     bordercolor="#666666"
     borderopacity="1"
     objecttolerance="10"
     gridtolerance="10"
     guidetolerance="10"
     inkscape:pageopacity="0"
     inkscape:pageshadow="2"
     inkscape:window-width="1024"
     inkscape:window-height="550"
     id="namedview20"
     showgrid="false"
     inkscape:zoom="4.2909091"
     inkscape:cx="0.074921967"
     inkscape:cy="28.049509"
     inkscape:window-x="0"
     inkscape:window-y="0"
     inkscape:window-maximized="1"
     inkscape:current-layer="svg2441"
     showguides="true"
     inkscape:guide-bbox="true" /><defs
     id="defs2453" /><g
     id="activity-read"
     style="display:block;stroke:#000000;fill:#ffffff"
     transform="matrix(1.0411248,-0.00313407,0.0029004,1.1250069,-0.88752716,-5.3940759)"><path
       d="m 27.904,11.023 -0.002,0 c 0,-0.002 -1.71,-2.053 -9.376,-2.504 C 10.86,8.07 6.843,10.121 6.84,10.122 4.942,10.741 3.345,11.857 3.345,13.616 l 0,27.702 c 0,2.025 1.235,3.494 3.495,3.494 0.003,0 4.41,-1.35 10.004,-1.35 5.589,-0.001 11.061,2.253 11.061,2.253"
       id="path2444"
       style="fill:#ffffff;stroke:#000000;stroke-width:3.50000000000000000;stroke-linejoin:round;display:inline"
       inkscape:connector-curvature="0" /><path
       d="m 27.898,11.023 0.223844,6.71e-4 c 0,-0.002 1.491156,-2.053624 9.153156,-2.504624 7.668,-0.449 11.686,1.602 11.688,1.603 1.897,0.619 3.494,1.735 3.494,3.494 l 0,27.702 c 0,2.025 -1.233,3.494 -3.494,3.494 -0.003,0 -4.409,-1.35 -10.004,-1.35 -5.589,-10e-4 -11.062,2.253 -11.062,2.253"
       id="path2446"
       style="fill:#ffffff;stroke:#000000;stroke-width:3.5;stroke-linejoin:round;display:inline"
       inkscape:connector-curvature="0"
       sodipodi:nodetypes="ccccssscc" /><line
       display="inline"
       id="line2448"
       style="fill:#ffffff;stroke:#000000;stroke-width:0.37684922999999998;stroke-linecap:round;stroke-linejoin:round;display:inline"
       x1="27.802471"
       x2="27.9"
       y1="45.314518"
       y2="45.716999" /><path
       d="m 32.566,44.275 c 0,0 0.421881,1.042866 -4.213119,1.042866 -4.632,0 -5.115881,-1.042866 -5.115881,-1.042866"
       id="path2450"
       style="fill:#ffffff;stroke:#000000;stroke-width:3.5;stroke-linecap:round;stroke-linejoin:round;display:inline"
       inkscape:connector-curvature="0"
       sodipodi:nodetypes="csc" /></g><path
     d="m 14.516366,23.366123 a 0.00775,0 180 0 0 0.0155,0 l -4.03e-4,0 z"
     id="path2489"
     style="fill:#ffffff;fill-opacity:1;stroke:#000000;stroke-width:1.12501132;stroke-linecap:square;stroke-linejoin:bevel;stroke-opacity:1"
     inkscape:connector-curvature="0" /><circle
     transform="matrix(2.1156047,0,0,2.1156047,-29.741153,-37.196361)"
     id="circle9619"
     r="1.9910001"
     display="inline"
     cy="29.597"
     cx="27.504"
     sodipodi:cx="27.504"
     sodipodi:cy="29.597"
     sodipodi:rx="1.9910001"
     sodipodi:ry="1.9910001"
     style="fill:#000000;display:inline;stroke:#000000"
     d="m 29.495,29.597 c 0,1.099599 -0.891401,1.991 -1.991,1.991 -1.099599,0 -1.991,-0.891401 -1.991,-1.991 0,-1.099599 0.891401,-1.991 1.991,-1.991 1.099599,0 1.991,0.891401 1.991,1.991 z" /><path
     id="path9617"
     display="inline"
     d="m 28.44644,12.186083 c -13.239455,0 -24.2681026,13.203488 -24.2681026,13.203488 0,0 11.0286476,13.266957 24.2681026,13.258495 13.241567,-0.01055 24.276561,-13.273303 24.276561,-13.273303 0,0 -11.034994,-13.197142 -24.276561,-13.18868 z m 0,22.514265 c -5.12611,0 -9.281159,-4.159279 -9.281159,-9.285389 0,-5.117648 4.155049,-9.283273 9.281159,-9.283273 5.119763,0 9.279042,4.165625 9.279042,9.283273 0,5.128226 -4.159279,9.285389 -9.279042,9.285389 z"
     inkscape:connector-curvature="0"
     style="fill:#ffffff;display:inline;stroke:#000000" /></svg>