<?xml version="1.0" encoding="UTF-8" standalone="no"?>
<!-- Created with Inkscape (http://www.inkscape.org/) -->

<svg
   xmlns:dc="http://purl.org/dc/elements/1.1/"
   xmlns:cc="http://creativecommons.org/ns#"
   xmlns:rdf="http://www.w3.org/1999/02/22-rdf-syntax-ns#"
   xmlns:svg="http://www.w3.org/2000/svg"
   xmlns="http://www.w3.org/2000/svg"
   xmlns:sodipodi="http://sodipodi.sourceforge.net/DTD/sodipodi-0.dtd"
   xmlns:inkscape="http://www.inkscape.org/namespaces/inkscape"
   height="55"
   id="svg2441"
   version="1.1"
   viewBox="0 0 55 55"
   width="55"
   xml:space="preserve"
   inkscape:version="0.48.3.1 r9886"
   sodipodi:docname="credits.svg"><metadata
     id="metadata22"><rdf:RDF><cc:Work
         rdf:about=""><dc:format>image/svg+xml</dc:format><dc:type
           rdf:resource="http://purl.org/dc/dcmitype/StillImage" /><dc:title></dc:title></cc:Work></rdf:RDF></metadata><sodipodi:namedview
     pagecolor="#ffffff"
     bordercolor="#666666"
     borderopacity="1"
     objecttolerance="10"
     gridtolerance="10"
     guidetolerance="10"
     inkscape:pageopacity="0"
     inkscape:pageshadow="2"
     inkscape:window-width="1024"
     inkscape:window-height="557"
     id="namedview20"
     showgrid="false"
     inkscape:zoom="4.2909091"
     inkscape:cx="1.5051873"
     inkscape:cy="27.5"
     inkscape:window-x="0"
     inkscape:window-y="25"
     inkscape:window-maximized="1"
     inkscape:current-layer="svg2441"
     showguides="true"
     inkscape:guide-bbox="true" /><defs
     id="defs2453" /><g
     id="activity-read"
     style="display:block;fill:none"
     transform="matrix(1.0438471,-0.00307797,0.00290798,1.1048696,-1.4972545,-6.5391282)"><path
       d="m 27.904,11.023 -0.002,0 c 0,-0.002 -1.71,-2.053 -9.376,-2.504 C 10.86,8.07 6.843,10.121 6.84,10.122 4.942,10.741 3.345,11.857 3.345,13.616 l 0,27.702 c 0,2.025 1.235,3.494 3.495,3.494 0.003,0 4.41,-1.35 10.004,-1.35 5.589,-0.001 11.061,2.253 11.061,2.253"
       id="path2444"
       style="fill:none;stroke:#000000;stroke-width:3.50000000000000000;stroke-linejoin:round;display:inline"
       inkscape:connector-curvature="0" /><path
       d="m 27.898,11.023 0,0 c 0,-0.002 1.715,-2.053 9.377,-2.504 7.668,-0.449 11.686,1.602 11.688,1.603 1.897,0.619 3.494,1.735 3.494,3.494 l 0,27.702 c 0,2.025 -1.233,3.494 -3.494,3.494 -0.003,0 -4.409,-1.35 -10.004,-1.35 -5.589,-0.001 -11.062,2.253 -11.062,2.253"
       id="path2446"
       style="fill:none;stroke:#000000;stroke-width:3.50000000000000000;stroke-linejoin:round;display:inline"
       inkscape:connector-curvature="0" /><line
       display="inline"
       id="line2448"
       style="fill:none;stroke:#000000;stroke-width:0.24227618000000001;stroke-linecap:round;stroke-linejoin:round;display:inline"
       x1="27.800886"
       x2="27.9"
       y1="45.882965"
       y2="45.716999" /><path
       d="m 32.566,44.275 c 0,0 -0.031,2.906 -4.666,2.906 -4.632,0 -4.663,-2.906 -4.663,-2.906"
       id="path2450"
       style="fill:none;stroke:#000000;stroke-width:3.50000000000000000;stroke-linecap:round;stroke-linejoin:round;display:inline"
       inkscape:connector-curvature="0" /></g><path
     d="m 13.946917,21.706271 a 0.007775,0 180 0 0 0.01555,0 l -4.05e-4,0 z"
     id="path2489"
     style="fill:#ffffff;fill-opacity:1;stroke:#000000;stroke-width:1.11635375;stroke-linecap:square;stroke-linejoin:bevel;stroke-opacity:1"
     inkscape:connector-curvature="0" /><g
     id="g3870"
     transform="matrix(0.69602064,0,0,0.69602064,7.8933315,3.6114128)"
     style="fill:#ffffff;stroke:#000000"><path
       id="path3872"
       d="M 27.5,50.125 C 15.157,50.125 5,39.968 5,27.625 5,15.282 15.157,5.125 27.5,5.125 39.843,5.125 50,15.282 50,27.625 49.837,40.071 40.412,49.484 28.077,50.118 z M 27.01,34.768 c 1.442,0.071 2.861,-0.712 3.291,-2.146 0.237,-0.791 0.137,-1.811 0.137,-2.574 2.463,-0.626 4.877,-1.854 6.337,-4.007 1.86,-2.742 1.917,-6.68 0.364,-9.57 -1.898,-3.533 -5.839,-5.071 -9.672,-5.145 -2.14,0.037 -4.283,0.632 -6.136,1.71 -2.327,1.355 -4.411,3.895 -3.741,6.749 0.177,0.752 0.599,1.455 1.276,1.853 2.435,1.43 4.135,-1.522 5.612,-2.885 0.879,-0.81 2.124,-1.37 3.342,-1.2 1.444,0.201 2.822,1.065 3.253,2.518 0.151,0.51 0.156,1.047 0.082,1.571 -0.247,1.758 -1.638,2.549 -3.217,3.043 -1.378,0.431 -3.914,0.566 -3.982,2.482 l 0.001,0 0,4.5 c -0.01,1.693 1.116,2.799 2.692,3.071 z m 0.006,9.676 c 1.977,0.096 3.69,-1.523 3.69,-3.507 0,-1.947 -1.6,-3.462 -3.51,-3.51 -1.943,0.004 -3.656,1.712 -3.505,3.69 0.132,1.74 1.289,2.945 2.971,3.291 z"
       inkscape:connector-curvature="0"
       style="fill:#ffffff;stroke:#000000" /></g></svg>